<?xml version="1.0" encoding="utf-8"?>
<!-- Generator: Adobe Illustrator 19.1.0, SVG Export Plug-In . SVG Version: 6.00 Build 0)  -->
<svg version="1.1" id="Layer_1" xmlns="http://www.w3.org/2000/svg" xmlns:xlink="http://www.w3.org/1999/xlink" x="0px" y="0px"
	 viewBox="0 0 612 792" enable-background="new 0 0 612 792" xml:space="preserve">
<g id="XPfvTF.tif">
	<g>
		<path d="M423.7,636c-85.9,0-171.9,0-257.8,0c-1.7-0.8-3.4-1.6-5.1-2.3c-12.1-5.1-20.5-13.5-23.6-26.4
			C115.5,519.6,94,431.9,72.5,344.1c-2-8.4,0.7-11.6,9.3-11.6c30.8,0,61.7,0,92.5,0c1.7,0,3.4,0.2,5.6,0.3c0,8.1-0.1,15.9,0,23.7
			c0.4,23.1,21.5,40.3,44.1,36.1c18.2-3.5,30.3-18.1,30.8-37.4c0.2-7.4,0-14.7,0-22.3c27.3,0,53.9,0,81,0c0,7.9-0.1,15.5,0,23
			c0.6,24.5,22.1,41.5,45.9,36.5c16.4-3.5,28.7-18.7,29.1-35.8c0.1-7.9,0-15.8,0-24c32.7,0,64.5,0,96.3,0c9.8,0,12,3,9.6,12.7
			c-21.3,87-42.7,173.9-64,260.9c-3.3,13.5-11.7,22.6-24.5,27.7C426.8,634.5,425.3,635.3,423.7,636z"/>
		<rect x="165" y="332.5" width="271" height="103.5"/>
		<path stroke="#010101" stroke-width="18" stroke-miterlimit="10" d="M312.9,182.4c4.7,1.2,9.3,2.3,14,3.6
			c41.1,11.5,70,49,70.4,91.7c0.2,24.6,0.1,49.2,0.1,73.8c0,11.5-7.8,19.6-18.7,19.6c-10.8,0-18.8-8.1-18.8-19.5
			c-0.1-23.4,0-46.9,0-70.3c0-32.7-21.8-57.3-54.3-61.1c-28.5-3.4-58.3,19-62.9,47.8c-1.2,7.8-1.2,15.9-1.2,23.9
			c-0.2,20.1,0,40.2-0.1,60.3c-0.1,9.4-6.7,17.3-15.4,18.8c-9.1,1.6-17.9-3.4-21-12.1c-0.8-2.1-1.1-4.6-1.1-6.8
			c-0.1-25.4-0.4-50.8,0.1-76.1c0.8-45.8,35.8-85.2,81.2-92.3c1.1-0.2,2.1-0.8,3.2-1.2C296.5,182.4,304.7,182.4,312.9,182.4z"/>
	</g>
</g>
</svg>
